<svg xmlns="http://www.w3.org/2000/svg" viewBox="0 0 64 64" fill="none">
  <rect width="64" height="64" rx="16" fill="#0B0B0B"/>
  <path d="M42.7 20.9c-2.8-2.2-6.2-3.3-10.2-3.3-3.5 0-6.4.8-8.8 2.4-2.4 1.6-3.6 3.9-3.6 6.7 0 2.4.8 4.2 2.3 5.5 1.5 1.3 4.1 2.4 7.9 3.3 2.8.7 4.8 1.3 5.9 2 .7.5 1.1 1.1 1.1 1.9 0 1-.5 1.8-1.4 2.4-1 .6-2.2.9-3.8.9-3.4 0-6.6-1.2-9.6-3.7l-4.5 5.6c3.9 3.3 8.5 4.9 13.8 4.9 3.9 0 7.1-.9 9.5-2.6 2.5-1.7 3.7-4.1 3.7-7.1 0-2.5-.8-4.4-2.4-5.8-1.6-1.4-4.3-2.6-8.1-3.5-2.7-.6-4.6-1.2-5.7-1.8-.8-.4-1.1-1-1.1-1.7 0-.8.4-1.4 1.2-1.9.8-.5 1.9-.7 3.2-.7 2.8 0 5.5 1 8.2 3.1l4.4-5.6Z" fill="#5865F2"/>
</svg>
